<svg width="44" height="63" viewBox="0 0 44 63" fill="none" xmlns="http://www.w3.org/2000/svg">
<circle cx="22" cy="21.3333" r="21.3333" fill="#388E3C"/>
<path d="M22 61.3333L23.3088 62.0662C23.0435 62.5399 22.5429 62.8333 22 62.8333C21.4571 62.8333 20.9565 62.5399 20.6913 62.0662L22 61.3333ZM2.02458 28.7329C1.61981 28.0101 1.87763 27.096 2.60044 26.6912C3.32325 26.2865 4.23733 26.5443 4.6421 27.2671L2.02458 28.7329ZM20.6913 60.6004L39.3579 27.2671L41.9754 28.7329L23.3088 62.0662L20.6913 60.6004ZM4.6421 27.2671L23.3088 60.6004L20.6913 62.0662L2.02458 28.7329L4.6421 27.2671Z" fill="#388E3C"/>
<path d="M32.6667 10.6667H11.3333V13.3333H32.6667V10.6667ZM34 24V21.3333L32.6667 14.6667H11.3333L10 21.3333V24H11.3333V32H24.6667V24H30V32H32.6667V24H34ZM22 29.3333H14V24H22V29.3333Z" fill="white"/>
</svg>
